<svg width="32" height="33" viewBox="0 0 32 33" fill="none" xmlns="http://www.w3.org/2000/svg">
<path d="M21.5307 28.6164L21.5142 29.6717C22.4244 29.2819 23.2906 28.8079 24.1016 28.2589C24.014 26.9326 24.5593 25.4633 25.6975 24.325C26.6543 23.3682 27.8771 22.7999 29.0852 22.7313C29.3286 22.2768 29.5498 21.8097 29.7468 21.3298V18.3857L21.5307 20.5883V28.0742L21.5319 28.0957L21.5307 28.1309V28.6164H21.5307Z" fill="#050621"/>
<path d="M30.6075 12.4076C29.1877 5.34039 22.9342 0 15.4549 0C6.93296 0 0 6.93306 0 15.455C0 23.0612 5.52451 29.3973 12.7715 30.6719C12.5344 29.2506 13.0687 27.5976 14.3211 26.3448C15.3428 25.3228 16.6669 24.7374 17.9536 24.7374C18.0935 24.7374 18.232 24.7442 18.3669 24.7577V20.6032C17.5064 21.0919 16.5136 21.3751 15.4544 21.3751C12.1906 21.3751 9.53476 18.7189 9.53476 15.455C9.53476 12.191 12.1905 9.53521 15.4544 9.53521C18.5284 9.53521 21.0602 11.8903 21.3457 14.89L30.6075 12.4076ZM10.6866 9.96368L6.94279 3.82636C6.94279 3.82636 9.55134 1.51762 12.6988 1.51762L13.8544 8.31202C13.8545 8.31143 11.6392 8.41554 10.6866 9.96368ZM15.0044 8.47841L13.9731 1.22459L15.1136 1.06288L16.1452 8.31642L15.0044 8.47841Z" fill="#050621"/>
<path d="M15.455 11.2634C13.1436 11.2634 11.2632 13.1438 11.2632 15.4552C11.2632 17.7665 13.1435 19.6473 15.455 19.6473C16.5861 19.6473 17.6125 19.1951 18.3682 18.4639V16.5448V16.2365V15.393H18.4767H19.4693L19.6428 15.3464C19.5836 13.0856 17.7302 11.2634 15.455 11.2634ZM15.455 16.7551C14.7385 16.7551 14.1558 16.1718 14.1558 15.4552C14.1558 14.7387 14.7385 14.1554 15.455 14.1554C16.1718 14.1554 16.7543 14.7387 16.7543 15.4552C16.7543 16.1718 16.1718 16.7551 15.455 16.7551Z" fill="#050621"/>
<path d="M31.7543 26.1376H31.7587V20.8685V16.6535V16.5444V16.0453V14.8634V13.291L31.6312 13.3253L30.7885 13.5513L21.3408 16.0838L20.4309 16.3284L19.6196 16.5454H19.5184V16.5724V18.4539V19.7481V19.934V26.4023C19.0854 26.0575 18.5385 25.8887 17.9525 25.8887C17.0114 25.8887 15.9695 26.3235 15.1342 27.1583C14.0336 28.2594 13.626 29.7207 13.9904 30.8379C14.0998 31.1743 14.2729 31.4823 14.5262 31.7367C14.5301 31.7399 14.5347 31.7423 14.5388 31.7461C14.9909 32.1921 15.602 32.4094 16.2643 32.4094C17.0881 32.4094 17.9895 32.0751 18.7631 31.4368C18.8796 31.3406 18.9942 31.2383 19.1039 31.1281C19.3626 30.8693 19.5679 30.5871 19.7484 30.2966C20.0877 29.7533 20.302 29.1752 20.36 28.6148H20.3779V28.1262C20.3773 28.1164 20.3785 28.107 20.3779 28.0974V19.7037L30.8394 16.8999L30.8982 16.884V20.7245V22.979V24.385C30.7229 24.2457 30.5254 24.1416 30.3179 24.059C30.0424 23.9493 29.7454 23.8879 29.4326 23.8767C29.3975 23.8755 29.364 23.8689 29.3285 23.8689C28.9939 23.8689 28.6464 23.9267 28.3009 24.0353C27.6726 24.2311 27.049 24.6006 26.51 25.139C25.8514 25.7981 25.4504 26.5873 25.3031 27.3544C25.2287 27.7419 25.2243 28.1188 25.2884 28.4755C25.3422 28.7768 25.4375 29.0614 25.5933 29.3146C25.6815 29.4575 25.78 29.5954 25.9026 29.7168C26.3554 30.1702 26.972 30.3901 27.6406 30.3901C28.5879 30.3901 29.6402 29.9485 30.4799 29.1088C31.3607 28.2301 31.7976 27.1194 31.7543 26.1376Z" fill="#050621"/>
</svg>
