<svg width="24" height="32" viewBox="0 0 24 32" fill="none" xmlns="http://www.w3.org/2000/svg">
<path d="M22.5108 0.00365874L18.9076 0.542466C18.6718 0.576142 18.5035 0.778195 18.5035 1.01392V4.41514C18.3014 4.34779 18.0657 4.31412 17.8299 4.38147C17.1901 4.51617 16.7523 5.05498 16.8534 5.59379C16.9544 6.13259 17.5605 6.46935 18.2004 6.33465C18.7729 6.23362 19.177 5.79584 19.177 5.29071V1.88949L22.3761 1.41803V3.80899C22.1741 3.74164 21.9383 3.70796 21.7026 3.77531C21.0628 3.91001 20.625 4.44882 20.726 4.98763C20.827 5.52643 21.4332 5.86319 22.073 5.72849C22.6455 5.62746 23.0496 5.18968 23.0496 4.68455V0.475115C23.0496 0.172036 22.7802 -0.0300167 22.5108 0.00365874Z" fill="#050621"/>
<path d="M14.3459 6.0859C14.86 4.33725 13.8593 2.50287 12.1107 1.98871C10.362 1.47454 8.52767 2.47528 8.0135 4.22393C7.49933 5.97258 8.50007 7.80695 10.2487 8.32112C11.9973 8.83529 13.8317 7.83455 14.3459 6.0859Z" fill="#050621"/>
<path d="M19.6487 10.6787C19.7497 10.0726 19.4803 9.46639 18.9078 9.16331C18.5037 8.96126 18.0323 8.96126 17.6618 9.16331L16.82 8.52348C16.921 7.84997 16.5506 7.21014 15.8771 7.04176C15.1699 6.83971 14.429 7.24381 14.1933 7.951C13.9912 8.65818 14.3953 9.39904 15.1025 9.63477C15.4393 9.7358 15.776 9.70212 16.0454 9.56742L16.82 10.1399C16.3148 11.0828 15.7424 12.0257 15.3382 12.5645C15.2709 12.4972 15.2372 12.4298 15.2035 12.3625C14.6311 11.5206 13.7218 10.2409 11.8023 9.66845L9.98388 9.12964L8.16542 8.59083C5.70712 7.84997 3.58558 10.1062 2.57532 11.1838L2.50797 11.2512C1.49771 12.2951 0.352753 14.8545 0.117027 15.3596C-0.186051 16.0668 0.117027 16.9087 0.824207 17.2118C0.992584 17.2791 1.19463 17.3465 1.39669 17.3465C1.93549 17.3465 2.44062 17.0434 2.67635 16.5046C3.1478 15.427 4.02336 13.7095 4.52849 13.1707L4.59584 13.1033C4.83156 12.8676 5.23567 12.4298 5.70712 12.0594L3.95601 17.9526C3.82131 18.3904 3.75396 18.8619 3.75396 19.3333C3.6866 22.6335 3.58558 23.9468 3.51823 24.1826C3.31618 24.7214 1.76711 27.3481 0.420104 29.4696C-0.0513499 30.2442 0.150702 31.2544 0.925233 31.7259C1.19464 31.8943 1.49771 31.9953 1.80079 31.9953C2.33959 31.9953 2.8784 31.7259 3.18148 31.2207C4.36011 29.3349 6.4143 26.0347 6.6837 24.9908C6.75105 24.7551 6.91943 24.1152 6.98678 20.4446L7.05413 20.5119C8.33379 21.8926 9.57978 23.6438 9.6808 24.1152C9.6808 25.1928 9.37772 28.8971 9.2767 30.2442C9.20935 31.1534 9.88285 31.9279 10.7584 31.9953C11.6676 32.0626 12.4422 31.3891 12.5095 30.5136C12.5095 30.3115 12.9136 25.5969 12.9136 24.1489C12.9136 22.7009 11.4656 20.714 10.2533 19.2323L12.2064 13.1033C12.4422 13.3727 12.6442 13.6422 12.88 13.9789C13.3514 14.6524 13.9576 15.528 15.0688 15.73C15.1699 15.7637 15.3046 15.7637 15.4393 15.7637C16.1128 15.7637 17.2577 15.2922 19.0762 11.8574L19.716 12.3288C19.8171 12.3962 19.9518 12.4635 20.0865 12.4635C20.2885 12.4635 20.4569 12.3625 20.5916 12.2278C20.7936 11.9584 20.7263 11.5543 20.4569 11.3522L19.6487 10.6787Z" fill="#050621"/>
</svg>
