<svg width="20" height="15" viewBox="0 0 20 15" fill="none" xmlns="http://www.w3.org/2000/svg">
<path d="M8.12247 13.0019C8.23584 13.1075 8.32678 13.2349 8.38984 13.3765C8.45291 13.518 8.48682 13.6708 8.48956 13.8257C8.49229 13.9807 8.46379 14.1346 8.40575 14.2783C8.34772 14.4219 8.26134 14.5525 8.15176 14.662C8.04219 14.7716 7.91167 14.858 7.76799 14.916C7.62431 14.9741 7.47041 15.0026 7.31548 14.9998C7.16054 14.9971 7.00774 14.9632 6.8662 14.9001C6.72465 14.837 6.59726 14.7461 6.49162 14.6327L0.337463 8.47856C0.121375 8.2622 8.38446e-08 7.96892 8.7491e-08 7.66313C9.11375e-08 7.35734 0.121375 7.06406 0.337463 6.8477L6.49162 0.693522C6.59726 0.580151 6.72465 0.48922 6.8662 0.426152C7.00774 0.363084 7.16054 0.329173 7.31548 0.326439C7.47041 0.323706 7.62431 0.352205 7.76799 0.410241C7.91167 0.468277 8.04219 0.554658 8.15177 0.664231C8.26134 0.773805 8.34772 0.904326 8.40575 1.04801C8.46379 1.19169 8.49229 1.34559 8.48956 1.50052C8.48682 1.65546 8.45291 1.80826 8.38984 1.9498C8.32678 2.09135 8.23584 2.21874 8.12247 2.32438L3.93765 6.50922L18.8461 6.50922C19.1521 6.50922 19.4456 6.63079 19.662 6.84719C19.8784 7.06359 20 7.35709 20 7.66313C20 7.96917 19.8784 8.26267 19.662 8.47907C19.4456 8.69547 19.1521 8.81704 18.8461 8.81704L3.93765 8.81704L8.12247 13.0019Z" fill="white"/>
</svg>
