<svg width="20" height="21" viewBox="0 0 20 21" fill="none" xmlns="http://www.w3.org/2000/svg">
<path d="M0.498819 19.0349C1.43382 20.2487 3.36507 20.3274 4.81257 19.2124C5.36673 18.789 5.79041 18.218 6.03507 17.5649C6.16507 17.3074 6.25007 16.9424 6.25007 16.5249V7.18367L17.5001 5.05742V9.98992C17.5001 11.7299 16.1688 12.1299 15.6976 12.2187C15.6563 12.2237 15.6163 12.2337 15.5751 12.2412L15.5226 12.2474L15.5301 12.2499C14.9393 12.3578 14.383 12.6055 13.9076 12.9724C12.4601 14.0874 12.0438 15.9749 12.9788 17.1887C13.9138 18.4024 15.8451 18.4824 17.2926 17.3674C18.0251 16.8024 18.4913 16.0399 18.6538 15.2674C18.7101 15.0799 18.7501 14.8737 18.7501 14.6399V2.50742C18.7501 2.43117 18.7351 2.36617 18.7288 2.29367C18.7313 2.25617 18.7501 2.21367 18.7501 2.17617V0.926169C18.7501 0.236169 18.1901 -0.153831 17.5001 0.0574189L6.25007 2.18367C5.56007 2.39367 5.00007 3.12492 5.00007 3.81492V5.06492C5.00007 5.08242 5.00882 5.09492 5.01007 5.11117C5.00882 5.14867 5.00007 5.18117 5.00007 5.21867V11.8362C5.00007 13.5787 3.66507 13.9774 3.19507 14.0649C3.17132 14.0687 3.14757 14.0762 3.12257 14.0799C3.06132 14.0899 3.02132 14.0937 3.02132 14.0937L3.03507 14.0999C2.45005 14.2094 1.89922 14.4557 1.42757 14.8187C-0.019931 15.9337 -0.434931 17.8212 0.498819 19.0349Z" fill="white"/>
</svg>
