<svg width="17" height="23" viewBox="0 0 17 23" fill="none" xmlns="http://www.w3.org/2000/svg">
<path d="M16.0198 1.21569C16.2539 1.49265 16.3825 1.84314 16.3825 2.20589V21.2034C16.3826 21.4957 16.2991 21.7818 16.1418 22.0281C15.9845 22.2745 15.7601 22.4706 15.4949 22.5935C15.2298 22.7164 14.935 22.7609 14.6454 22.7218C14.3558 22.6826 14.0835 22.5615 13.8605 22.3726L7.77348 17.2181H3.20852C2.84642 17.2181 2.48787 17.1468 2.15333 17.0082C1.81879 16.8697 1.51483 16.6666 1.25878 16.4105C1.00274 16.1545 0.799633 15.8505 0.661063 15.516C0.522493 15.1814 0.451172 14.8229 0.451172 14.4608V8.94608C0.451172 8.21479 0.741678 7.51344 1.25878 6.99634C1.77589 6.47924 2.47723 6.18873 3.20852 6.18873H7.77348L13.8617 1.03677C14.1718 0.77462 14.5734 0.646338 14.978 0.680118C15.3827 0.713898 15.7574 0.905752 16.0198 1.21569Z" fill="#050621"/>
</svg>
