<svg width="20" height="20" viewBox="0 0 20 20" fill="none" xmlns="http://www.w3.org/2000/svg">
<path d="M10 0C4.48 0 0 4.48007 0 10.0001C0 15.5202 4.48 20.0003 10 20.0003C15.52 20.0003 20 15.5202 20 10.0001C20 4.48007 15.52 0 10 0ZM8 14.0002C7.45 14.0002 7 13.5502 7 13.0002V7.0001C7 6.45009 7.45 6.00009 8 6.00009C8.55 6.00009 9 6.45009 9 7.0001V13.0002C9 13.5502 8.55 14.0002 8 14.0002ZM12 14.0002C11.45 14.0002 11 13.5502 11 13.0002V7.0001C11 6.45009 11.45 6.00009 12 6.00009C12.55 6.00009 13 6.45009 13 7.0001V13.0002C13 13.5502 12.55 14.0002 12 14.0002Z" fill="#FF296D"/>
</svg>
