<svg width="95" height="95" viewBox="0 0 95 95" fill="none" xmlns="http://www.w3.org/2000/svg">
<path d="M39.8071 18.3188C44.4359 15.6463 50.1389 15.6463 54.7677 18.3188L68.6348 26.3249C73.2637 28.9974 76.1151 33.9363 76.1151 39.2812V55.2936C76.1151 60.6385 73.2637 65.5774 68.6348 68.2499L54.7677 76.256C50.1389 78.9285 44.4359 78.9285 39.8071 76.256L25.94 68.2499C21.3111 65.5774 18.4597 60.6385 18.4597 55.2936V39.2812C18.4597 33.9363 21.3111 28.9974 25.94 26.3249L39.8071 18.3188Z" fill="#FF296D"/>
<path d="M40.2067 4.64267C44.7198 2.03702 50.2802 2.03702 54.7933 4.64267L80.9689 19.7551C85.482 22.3608 88.2622 27.1762 88.2622 32.3875V62.6125C88.2622 67.8238 85.482 72.6392 80.9689 75.2449L54.7933 90.3573C50.2802 92.963 44.7198 92.963 40.2067 90.3573L14.0311 75.2449C9.518 72.6392 6.73781 67.8238 6.73781 62.6125V32.3875C6.73781 27.1762 9.518 22.3608 14.0311 19.7551L40.2067 4.64267Z" stroke="#FF296D" stroke-width="0.748031"/>
<path d="M40.2224 10.6427C44.7356 8.03702 50.2959 8.03702 54.8091 10.6427L75.8021 22.763C80.3152 25.3687 83.0954 30.1841 83.0954 35.3954V59.6361C83.0954 64.8474 80.3152 69.6628 75.8021 72.2685L54.8091 84.3888C50.2959 86.9945 44.7356 86.9945 40.2224 84.3888L19.2294 72.2685C14.7163 69.6628 11.9361 64.8474 11.9361 59.6361V35.3954C11.9361 30.1841 14.7163 25.3687 19.2294 22.763L40.2224 10.6427Z" stroke="#05D8E8" stroke-width="0.748031"/>
<path d="M47.5 34C40.048 34 34 40.0481 34 47.5002C34 54.9523 40.048 61.0003 47.5 61.0003C54.952 61.0003 61 54.9523 61 47.5002C61 40.0481 54.952 34 47.5 34ZM44.8 52.9002C44.0575 52.9002 43.45 52.2927 43.45 51.5502V43.4501C43.45 42.7076 44.0575 42.1001 44.8 42.1001C45.5425 42.1001 46.15 42.7076 46.15 43.4501V51.5502C46.15 52.2927 45.5425 52.9002 44.8 52.9002ZM50.2 52.9002C49.4575 52.9002 48.85 52.2927 48.85 51.5502V43.4501C48.85 42.7076 49.4575 42.1001 50.2 42.1001C50.9425 42.1001 51.55 42.7076 51.55 43.4501V51.5502C51.55 52.2927 50.9425 52.9002 50.2 52.9002Z" fill="white"/>
</svg>
