<svg width="95" height="95" viewBox="0 0 95 95" fill="none" xmlns="http://www.w3.org/2000/svg">
<path d="M40.0195 18.5314C44.6483 15.8589 50.3513 15.8589 54.9801 18.5314L68.8472 26.5376C73.4761 29.21 76.3275 34.149 76.3275 39.4939V55.5062C76.3275 60.8511 73.4761 65.7901 68.8472 68.4625L54.9801 76.4687C50.3513 79.1412 44.6483 79.1412 40.0195 76.4687L26.1524 68.4625C21.5236 65.7901 18.6721 60.8511 18.6721 55.5062V39.4939C18.6721 34.149 21.5235 29.21 26.1524 26.5376L40.0195 18.5314Z" fill="#FF296D"/>
<path d="M40.2067 4.64267C44.7198 2.03702 50.2802 2.03702 54.7933 4.64267L80.9689 19.7551C85.482 22.3608 88.2622 27.1762 88.2622 32.3875V62.6125C88.2622 67.8238 85.482 72.6392 80.9689 75.2449L54.7933 90.3573C50.2802 92.963 44.7198 92.963 40.2067 90.3573L14.0311 75.2449C9.518 72.6392 6.73781 67.8238 6.73781 62.6125V32.3875C6.73781 27.1762 9.518 22.3608 14.0311 19.7551L40.2067 4.64267Z" stroke="#FF296D" stroke-width="0.748031"/>
<path d="M40.2068 10.6268C44.7199 8.02115 50.2803 8.02115 54.7934 10.6268L75.7865 22.7472C80.2996 25.3528 83.0798 30.1682 83.0798 35.3795V59.6202C83.0798 64.8315 80.2996 69.647 75.7865 72.2526L54.7934 84.373C50.2803 86.9786 44.7199 86.9786 40.2068 84.373L19.2138 72.2526C14.7006 69.647 11.9204 64.8315 11.9204 59.6202V35.3795C11.9204 30.1682 14.7006 25.3528 19.2138 22.7472L40.2068 10.6268Z" stroke="#05D8E8" stroke-width="0.748031"/>
<path d="M57.9722 49.4435C59.4683 48.5797 59.4683 46.4204 57.9722 45.5566L43.9466 37.4589C42.4506 36.5952 40.5805 37.6749 40.5805 39.4024V55.5977C40.5805 57.3252 42.4506 58.4049 43.9466 57.5412L57.9722 49.4435Z" fill="white"/>
</svg>
