<svg xmlns="http://www.w3.org/2000/svg" viewBox="0 0 24 30" x="0px" y="0px"><title>ui 37</title><g data-name="Layer 2"><path d="M12,5.5a3.00328,3.00328,0,0,0-3,3V9.68433A2.99471,2.99471,0,0,0,7,12.5v2a3.00328,3.00328,0,0,0,3,3h4a3.00328,3.00328,0,0,0,3-3v-2a2.99471,2.99471,0,0,0-2-2.81567V8.5A3.00328,3.00328,0,0,0,12,5.5Zm-1,3a1,1,0,0,1,2,0v1H11Zm4,6a1.0013,1.0013,0,0,1-1,1H10a1.0013,1.0013,0,0,1-1-1v-2a1.0013,1.0013,0,0,1,1-1h4a1.0013,1.0013,0,0,1,1,1Z"/><path d="M20,6.80078a1,1,0,0,0,2,0,2.99987,2.99987,0,0,0-2.52539-2.96142,17.06263,17.06263,0,0,1-3.1416-.78223,17.02407,17.02407,0,0,1-2.82324-1.29785,3.00085,3.00085,0,0,0-3.02.00049A17.05248,17.05248,0,0,1,7.66748,3.05713a17.07743,17.07743,0,0,1-3.14209.78223A2.99987,2.99987,0,0,0,2,6.80078v3.72705A12.00574,12.00574,0,0,0,8.17188,21.01709l1.88525,1.04736a3.97722,3.97722,0,0,0,3.88574,0l1.88526-1.04736A12.00575,12.00575,0,0,0,22,10.52783a1,1,0,0,0-2,0A10.00513,10.00513,0,0,1,14.85645,19.269l-1.88526,1.04737a1.98769,1.98769,0,0,1-1.94238,0L9.14355,19.269A10.00513,10.00513,0,0,1,4,10.52783v-3.727a.98842.98842,0,0,1,.82129-.98389,19.043,19.043,0,0,0,3.51172-.874A19.06933,19.06933,0,0,0,11.4873,3.49365a1.01776,1.01776,0,0,1,1.02491-.00049,19.04134,19.04134,0,0,0,3.15527,1.44971,19.02824,19.02824,0,0,0,3.51123.874A.98842.98842,0,0,1,20,6.80078Z"/></g><text x="0" y="39" fill="#000000" font-size="5px" font-weight="bold" font-family="'Helvetica Neue', Helvetica, Arial-Unicode, Arial, Sans-serif">Created by Anggara Putra</text><text x="0" y="44" fill="#000000" font-size="5px" font-weight="bold" font-family="'Helvetica Neue', Helvetica, Arial-Unicode, Arial, Sans-serif">from the Noun Project</text></svg>