<svg width="36" height="36" viewBox="0 0 36 36" fill="none" xmlns="http://www.w3.org/2000/svg">
<circle cx="18" cy="18" r="18" fill="white"/>
<path fill-rule="evenodd" clip-rule="evenodd" d="M14.2857 10C13.6795 10 13.0981 10.2408 12.6695 10.6695C12.2408 11.0981 12 11.6795 12 12.2857V23.7143C12 24.3205 12.2408 24.9019 12.6695 25.3305C13.0981 25.7592 13.6795 26 14.2857 26C14.8919 26 15.4733 25.7592 15.902 25.3305C16.3306 24.9019 16.5714 24.3205 16.5714 23.7143V12.2857C16.5714 11.6795 16.3306 11.0981 15.902 10.6695C15.4733 10.2408 14.8919 10 14.2857 10ZM21.7143 10C21.1081 10 20.5267 10.2408 20.098 10.6695C19.6694 11.0981 19.4286 11.6795 19.4286 12.2857V23.7143C19.4286 24.3205 19.6694 24.9019 20.098 25.3305C20.5267 25.7592 21.1081 26 21.7143 26C22.3205 26 22.9019 25.7592 23.3305 25.3305C23.7592 24.9019 24 24.3205 24 23.7143V12.2857C24 11.6795 23.7592 11.0981 23.3305 10.6695C22.9019 10.2408 22.3205 10 21.7143 10Z" fill="#FF296D"/>
</svg>
