<svg width="20" height="20" viewBox="0 0 20 20" fill="none" xmlns="http://www.w3.org/2000/svg">
<path d="M18.2502 18.2499L14.2691 14.2689M14.2691 14.2689C14.9501 13.5879 15.4903 12.7794 15.8588 11.8897C16.2274 11 16.417 10.0463 16.417 9.08328C16.417 8.12023 16.2274 7.1666 15.8588 6.27686C15.4903 5.38712 14.9501 4.57868 14.2691 3.89769C13.5881 3.21671 12.7797 2.67653 11.8899 2.30799C11.0002 1.93944 10.0466 1.74976 9.08352 1.74976C8.12047 1.74976 7.16685 1.93944 6.2771 2.30799C5.38736 2.67653 4.57892 3.21671 3.89794 3.89769C2.52264 5.273 1.75 7.13831 1.75 9.08328C1.75 11.0282 2.52264 12.8936 3.89794 14.2689C5.27324 15.6442 7.13855 16.4168 9.08352 16.4168C11.0285 16.4168 12.8938 15.6442 14.2691 14.2689Z" stroke="white" stroke-width="1.83333" stroke-linecap="round" stroke-linejoin="round"/>
</svg>
