<svg width="32" height="32" viewBox="0 0 32 32" fill="none" xmlns="http://www.w3.org/2000/svg">
<path fill-rule="evenodd" clip-rule="evenodd" d="M16 0C24.8359 0 32 7.16406 32 16C32 24.8359 24.8359 32 16 32C7.16406 32 0 24.8359 0 16C0 7.16406 7.16406 0 16 0ZM16 14.7526C16.6901 14.7526 17.2474 15.3125 17.2474 16C17.2474 16.6875 16.6901 17.2474 16 17.2474C15.3125 17.2474 14.7526 16.6901 14.7526 16C14.7526 15.3125 15.3125 14.7526 16 14.7526ZM16 10.9349C18.7969 10.9349 21.0651 13.2031 21.0651 16C21.0651 18.7969 18.7969 21.0651 16 21.0651C13.2031 21.0651 10.9375 18.7969 10.9375 16C10.9375 13.2031 13.2031 10.9349 16 10.9349ZM3.53906 13.0078C4.375 10.7708 5.70052 8.77604 7.38542 7.15365C9.06771 5.53385 11.1094 4.28125 13.375 3.53125L13.7813 4.76042C11.6979 5.45052 9.82552 6.59896 8.28125 8.08594C6.73177 9.57813 5.51563 11.4089 4.75 13.4583L3.53906 13.0078ZM7.58333 13.9531C8.10677 12.5495 8.9401 11.2943 9.9974 10.276C11.0547 9.25781 12.3359 8.47135 13.7604 8.0026L14.1641 9.23177C12.9245 9.64323 11.8125 10.3255 10.8932 11.2083C9.97136 12.0964 9.2474 13.1849 8.79167 14.4036L7.58333 13.9531ZM24.5521 17.849C24.0286 19.2526 23.1953 20.5078 22.138 21.526C21.0807 22.5443 19.7995 23.3307 18.375 23.7995L17.9714 22.5703C19.2109 22.1589 20.3255 21.4792 21.2422 20.5938C22.1641 19.7057 22.888 18.6172 23.3438 17.3984L24.5521 17.849ZM28.5964 18.7943C27.7604 21.0286 26.4349 23.0234 24.75 24.6484C23.0677 26.2708 21.026 27.5208 18.7604 28.2708L18.3542 27.0417C20.4375 26.3516 22.3099 25.2031 23.8542 23.7161C25.4036 22.224 26.6198 20.3932 27.3854 18.3438L28.5964 18.7943Z" fill="#050621"/>
</svg>
