<svg width="34" height="24" viewBox="0 0 34 24" fill="none" xmlns="http://www.w3.org/2000/svg">
<path d="M31.7284 3.59036C31.221 3.36191 30.6577 3.2876 30.1085 3.37667C29.5592 3.46574 29.0482 3.71426 28.6391 4.09134L25.0487 7.43121V5.00981C25.0487 3.68112 24.5209 2.40686 23.5814 1.46734C22.6419 0.527818 21.3677 0 20.039 0H5.00975C3.68108 0 2.40683 0.527818 1.46732 1.46734C0.527812 2.40686 0 3.68112 0 5.00981V18.3693C0 19.698 0.527812 20.9722 1.46732 21.9118C2.40683 22.8513 3.68108 23.3791 5.00975 23.3791H20.039C21.3677 23.3791 22.6419 22.8513 23.5814 21.9118C24.5209 20.9722 25.0487 19.698 25.0487 18.3693V15.9479L28.6558 19.2878C29.1868 19.7684 29.8766 20.0361 30.5929 20.0392C30.9904 20.0383 31.3831 19.9529 31.7451 19.7887C32.2376 19.5895 32.6596 19.2479 32.9571 18.8077C33.2545 18.3675 33.414 17.8485 33.415 17.3172V6.06187C33.4126 5.52864 33.2507 5.00832 32.9501 4.56787C32.6496 4.12743 32.2241 3.78699 31.7284 3.59036Z" fill="#050621"/>
</svg>
