<svg width="25" height="25" viewBox="0 0 25 25" fill="none" xmlns="http://www.w3.org/2000/svg">
<path d="M15.6473 2.42061C15.6473 1.13679 14.1179 0.469138 13.1767 1.34267L7.48258 6.62649C7.34675 6.75292 7.16814 6.82331 6.98258 6.82355H3.14729C2.56225 6.82355 2.00118 7.05595 1.58749 7.46964C1.17381 7.88332 0.941406 8.4444 0.941406 9.02943V16.3824C0.941406 16.9674 1.17381 17.5285 1.58749 17.9422C2.00118 18.3559 2.56225 18.5883 3.14729 18.5883H6.98111C7.16647 18.5881 7.34506 18.658 7.48111 18.7838L13.1767 24.0691C14.1179 24.9412 15.6473 24.275 15.6473 22.9912V2.42061ZM20.4326 4.80443C20.5046 4.74012 20.5886 4.69063 20.6798 4.65878C20.7709 4.62693 20.8675 4.61335 20.9639 4.61881C21.0603 4.62427 21.1547 4.64867 21.2417 4.69061C21.3286 4.73255 21.4065 4.79122 21.4708 4.86326C23.3998 7.02014 24.4662 9.81228 24.4662 12.7059C24.4662 15.5995 23.3998 18.3917 21.4708 20.5485C21.4067 20.6215 21.3288 20.6811 21.2415 20.7237C21.1542 20.7664 21.0594 20.7914 20.9624 20.7972C20.8655 20.803 20.7683 20.7895 20.6766 20.7576C20.5849 20.7256 20.5004 20.6758 20.428 20.611C20.3556 20.5462 20.2968 20.4677 20.255 20.3801C20.2131 20.2924 20.189 20.1973 20.1841 20.1003C20.1792 20.0033 20.1936 19.9063 20.2264 19.8149C20.2592 19.7235 20.3098 19.6394 20.3752 19.5677C22.0632 17.6804 22.9963 15.2372 22.9963 12.7052C22.9963 10.1732 22.0632 7.72997 20.3752 5.84267C20.2452 5.69738 20.1781 5.50638 20.1889 5.31167C20.1996 5.11697 20.2873 4.93451 20.4326 4.80443ZM18.7046 17.0191C18.6209 16.971 18.5475 16.9068 18.4885 16.8302C18.4296 16.7537 18.3864 16.6663 18.3612 16.573C18.3361 16.4797 18.3296 16.3824 18.3421 16.2866C18.3546 16.1908 18.3858 16.0984 18.4341 16.0147C19.0152 15.0088 19.3211 13.8676 19.3211 12.7059C19.3211 11.5442 19.0152 10.403 18.4341 9.39708C18.3809 9.31339 18.3451 9.2198 18.329 9.12195C18.3129 9.0241 18.3168 8.924 18.3404 8.82768C18.364 8.73136 18.4068 8.6408 18.4663 8.56147C18.5258 8.48213 18.6007 8.41565 18.6866 8.36602C18.7725 8.31639 18.8675 8.28464 18.9659 8.27268C19.0644 8.26073 19.1642 8.2688 19.2594 8.29643C19.3547 8.32407 19.4434 8.37068 19.5201 8.43346C19.5969 8.49625 19.6601 8.57391 19.7061 8.66179C20.4165 9.89113 20.7907 11.2859 20.7909 12.7057C20.7912 14.1255 20.4175 15.5204 19.7076 16.75C19.6101 16.9185 19.4497 17.0414 19.2617 17.0919C19.0737 17.1423 18.8734 17.1162 18.7046 17.0191Z" fill="#050621"/>
</svg>
